<?xml version="1.0" encoding="utf-8"?>
<!-- Generator: Adobe Illustrator 16.0.4, SVG Export Plug-In . SVG Version: 6.00 Build 0)  -->
<!DOCTYPE svg PUBLIC "-//W3C//DTD SVG 1.1//EN" "http://www.w3.org/Graphics/SVG/1.1/DTD/svg11.dtd">
<svg version="1.1"
	 id="Layer_1" sodipodi:version="0.32" sodipodi:docbase="C:\Documents and Settings\ltljltlj\Desktop\Signs\Interstate Shields" inkscape:output_extension="org.inkscape.output.svg.inkscape" sodipodi:modified="true" sodipodi:docname="Interstate Route 2-Digit Template.svg" inkscape:version="0.45" xmlns:dc="http://purl.org/dc/elements/1.1/" xmlns:cc="http://web.resource.org/cc/" xmlns:rdf="http://www.w3.org/1999/02/22-rdf-syntax-ns#" xmlns:svg="http://www.w3.org/2000/svg" xmlns:sodipodi="http://sodipodi.sourceforge.net/DTD/sodipodi-0.dtd" xmlns:inkscape="http://www.inkscape.org/namespaces/inkscape"
	 xmlns="http://www.w3.org/2000/svg" xmlns:xlink="http://www.w3.org/1999/xlink" x="0px" y="0px" width="601px" height="601px"
	 viewBox="0 0 601 601" enable-background="new 0 0 601 601" xml:space="preserve">
<sodipodi:namedview  width="601px" height="601px" inkscape:current-layer="Layer_1" inkscape:window-y="-4" inkscape:window-x="-4" inkscape:window-width="1280" inkscape:window-height="968" inkscape:pageopacity="0.0" inkscape:pageshadow="2" inkscape:cy="299.49944" inkscape:cx="300.49997" inkscape:zoom="1.2845255" pagecolor="#ffffff" bordercolor="#666666" guidetolerance="10.0" objecttolerance="10.0" gridtolerance="10.0" borderopacity="1.0" id="base">
	</sodipodi:namedview>
<g id="g1600" transform="matrix(0.9983361,0,0,0.9983377,0.4991681,0.4986858)">
	<path id="path1602" fill="#FFFFFF" stroke="#000000" stroke-width="1" d="M80.888,0.001
		c34.734,10.601,71.604,16.304,109.807,16.304c38.202,0,75.072-5.703,109.806-16.303c34.734,10.601,71.604,16.303,109.806,16.303
		s75.073-5.703,109.807-16.304c50.65,64.015,80.888,144.919,80.888,232.887c0,181.726-129.045,333.308-300.5,368.111
		c-171.455-34.803-300.5-186.385-300.5-368.111C0.001,144.92,30.239,64.015,80.888,0.001z"/>
	<path id="path1604" fill="#FFFFFF" stroke="#000000" stroke-width="1" stroke-linecap="round" stroke-linejoin="round" d="
		M80.888,0.001c34.734,10.601,71.604,16.304,109.807,16.304c38.202,0,75.072-5.703,109.806-16.303
		c34.734,10.601,71.604,16.303,109.806,16.303s75.073-5.703,109.807-16.304c50.65,64.015,80.888,144.919,80.888,232.887
		c0,181.726-129.045,333.308-300.5,368.111c-171.455-34.803-300.5-186.385-300.5-368.111C0.001,144.92,30.239,64.015,80.888,0.001z"
		/>
</g>
<g id="g1606" transform="matrix(1.0070935,0,0,1.0102847,-2.1280324,-3.66885)">
	<path id="path1608" fill="#003F87" d="M15.021,232.882c0-32.032,4.176-63.089,12.014-92.655h546.921
		c7.838,29.567,12.014,60.623,12.014,92.655c0,173.393-122.377,318.201-285.475,352.763
		C137.399,551.083,15.021,406.275,15.021,232.882z"/>
</g>
<g id="g1610" transform="matrix(1.0125461,0,0,1.0271486,-3.7638021,-3.1017481)">
	<path id="path1612" fill="#AF1E2D" d="M31.37,125.203c12.275-39.286,31.09-75.685,55.171-107.919
		c33.156,9.148,68.081,14.036,104.147,14.036c38.124,0,74.972-5.461,109.806-15.644C335.327,25.859,372.176,31.32,410.3,31.32
		c36.066,0,70.991-4.888,104.147-14.036c24.08,32.234,42.894,68.633,55.17,107.919H31.37L31.37,125.203z"/>
</g>
<path id="text5085" fill="#FFFFFF" d="M175.985,441.125V238.518h-22.762v-31.713h2.607c5.223,0,10.445-1.368,15.668-4.105
	c5.223-2.736,9.576-6.595,13.061-11.575h31.712v250H175.985z M447.777,316.495c0,19.904-2.363,38.936-7.089,57.094
	s-11.441,32.836-20.148,44.033c-13.931,18.652-34.077,27.978-60.441,27.978c-17.665,0-32.218-3.605-43.657-10.817
	s-20.891-18.53-28.354-33.956c-5.223-10.695-9.451-23.691-12.685-38.988s-4.851-30.41-4.851-45.343
	c0-20.641,2.425-39.792,7.276-57.453c4.851-17.661,11.504-32.462,19.961-44.403c7.462-9.451,16.355-16.479,26.679-21.083
	c10.324-4.604,22.697-6.906,37.121-6.906c15.919,0,29.475,3.608,40.668,10.823c11.193,7.216,20.771,18.533,28.735,33.95
	c5.223,11.197,9.325,24.258,12.309,39.183S447.777,300.827,447.777,316.495L447.777,316.495z M408.23,316.495
	c0-14.173-1.243-27.292-3.729-39.359c-2.486-12.066-6.22-22.328-11.199-30.785c-3.979-6.468-8.516-11.193-13.613-14.177
	c-5.098-2.983-11.377-4.725-18.84-5.227c-9.701-0.493-17.786,1.746-24.254,6.718c-6.467,4.973-11.815,13.057-16.044,24.254
	c-3.233,7.462-5.659,16.479-7.276,27.049c-1.617,10.571-2.425,21.08-2.425,31.525c0,13.437,1.243,26.374,3.729,38.812
	c2.485,12.438,6.215,22.635,11.188,30.591c3.984,6.468,8.713,11.318,14.182,14.553c5.47,3.233,12.186,4.851,20.149,4.851
	c9.2,0,16.849-2.486,22.944-7.458c6.096-4.973,11.258-13.058,15.486-24.255c1.244-3.233,2.489-7.15,3.734-11.751
	s2.302-9.451,3.172-14.553c0.869-5.102,1.552-10.263,2.049-15.486C407.981,326.576,408.23,321.475,408.23,316.495L408.23,316.495z"
	/>
</svg>
