<?xml version="1.0" encoding="utf-8"?>
<!-- Generator: Adobe Illustrator 16.0.4, SVG Export Plug-In . SVG Version: 6.00 Build 0)  -->
<!DOCTYPE svg PUBLIC "-//W3C//DTD SVG 1.1//EN" "http://www.w3.org/Graphics/SVG/1.1/DTD/svg11.dtd">
<svg version="1.1"
	 id="Layer_1" sodipodi:version="0.32" sodipodi:docbase="C:\Documents and Settings\ltljltlj\Desktop\Signs\Interstate Shields" inkscape:output_extension="org.inkscape.output.svg.inkscape" sodipodi:modified="true" sodipodi:docname="I-14.svg" inkscape:version="0.45" xmlns:dc="http://purl.org/dc/elements/1.1/" xmlns:cc="http://web.resource.org/cc/" xmlns:rdf="http://www.w3.org/1999/02/22-rdf-syntax-ns#" xmlns:svg="http://www.w3.org/2000/svg" xmlns:sodipodi="http://sodipodi.sourceforge.net/DTD/sodipodi-0.dtd" xmlns:inkscape="http://www.inkscape.org/namespaces/inkscape"
	 xmlns="http://www.w3.org/2000/svg" xmlns:xlink="http://www.w3.org/1999/xlink" x="0px" y="0px" width="601px" height="601px"
	 viewBox="0 0 601 601" enable-background="new 0 0 601 601" xml:space="preserve">
<sodipodi:namedview  width="601px" height="601px" inkscape:current-layer="Layer_1" inkscape:window-y="-4" inkscape:window-x="-4" inkscape:window-width="1280" inkscape:window-height="968" inkscape:pageopacity="0.0" inkscape:pageshadow="2" inkscape:cy="299.49944" inkscape:cx="300.49997" inkscape:zoom="1.2845255" pagecolor="#ffffff" bordercolor="#666666" guidetolerance="10.0" objecttolerance="10.0" gridtolerance="10.0" borderopacity="1.0" id="base">
	</sodipodi:namedview>
<g id="g1600" transform="matrix(0.9983361,0,0,0.9983377,0.4991681,0.4986859)">
	<path id="path1602" fill="#FFFFFF" stroke="#000000" stroke-width="1" d="M80.888,0.001
		c34.734,10.601,71.604,16.304,109.807,16.304c38.202,0,75.072-5.703,109.806-16.303c34.734,10.601,71.604,16.303,109.806,16.303
		s75.073-5.703,109.807-16.304c50.65,64.015,80.888,144.919,80.888,232.887c0,181.726-129.045,333.308-300.5,368.111
		c-171.455-34.803-300.5-186.385-300.5-368.111C0.001,144.92,30.239,64.015,80.888,0.001z"/>
	<path id="path1604" fill="#FFFFFF" stroke="#000000" stroke-width="1" stroke-linecap="round" stroke-linejoin="round" d="
		M80.888,0.001c34.734,10.601,71.604,16.304,109.807,16.304c38.202,0,75.072-5.703,109.806-16.303
		c34.734,10.601,71.604,16.303,109.806,16.303s75.073-5.703,109.807-16.304c50.65,64.015,80.888,144.919,80.888,232.887
		c0,181.726-129.045,333.308-300.5,368.111c-171.455-34.803-300.5-186.385-300.5-368.111C0.001,144.92,30.239,64.015,80.888,0.001z"
		/>
</g>
<g id="g1606" transform="matrix(1.0070935,0,0,1.0102847,-2.1280324,-3.66885)">
	<path id="path1608" fill="#003F87" d="M15.021,232.882c0-32.032,4.176-63.089,12.014-92.655h546.921
		c7.838,29.567,12.014,60.623,12.014,92.655c0,173.393-122.377,318.201-285.475,352.763
		C137.399,551.083,15.021,406.275,15.021,232.882z"/>
</g>
<g id="g1610" transform="matrix(1.0125461,0,0,1.0271486,-3.7638021,-3.1017482)">
	<path id="path1612" fill="#AF1E2D" d="M31.37,125.203c12.275-39.286,31.09-75.685,55.171-107.919
		c33.156,9.148,68.081,14.036,104.147,14.036c38.124,0,74.972-5.461,109.806-15.644C335.327,25.859,372.176,31.32,410.3,31.32
		c36.066,0,70.991-4.888,104.147-14.036c24.08,32.234,42.894,68.633,55.17,107.919H31.37L31.37,125.203z"/>
</g>
<path id="text5085" fill="#FFFFFF" d="M179.526,441.125V238.518h-22.762v-31.713h2.607c5.223,0,10.445-1.368,15.668-4.105
	c5.223-2.736,9.576-6.595,13.061-11.575h31.712v250H179.526z M444.236,348.959c0,13.931-2.675,26.742-8.022,38.437
	s-12.873,21.894-22.574,30.597c-9.702,8.704-21.206,15.48-34.514,20.332c-13.308,4.851-27.921,7.275-43.839,7.275
	c-10.947,0-21.705-1.242-32.276-3.729c-10.571-2.486-20.21-5.969-28.917-10.447l19.403-35.072
	c5.223,2.733,12.062,4.908,20.519,6.524c8.457,1.617,17.285,2.426,26.486,2.426c8.957,0,17.354-1.429,25.188-4.287
	s14.676-6.775,20.525-11.751c5.849-4.977,10.388-10.885,13.618-17.725c3.229-6.839,4.845-14.366,4.845-22.58
	c0-6.217-1.18-11.937-3.541-17.16c-2.361-5.223-5.593-9.824-9.695-13.807c-4.104-3.981-8.829-7.092-14.178-9.331
	c-5.348-2.239-11.134-3.359-17.358-3.359c-4.472,0-8.387,0.374-11.745,1.122c-3.359,0.747-6.533,2.115-9.52,4.104
	c-2.988,1.989-5.973,4.663-8.956,8.022s-6.343,7.649-10.077,12.873l-39.547-11.193l6.343-129.105H430.06v39.558H324.834
	l-2.607,41.039c9.2-2.733,16.412-4.596,21.635-5.591s10.946-1.492,17.171-1.492c11.44,0,22.196,2.238,32.271,6.712
	c10.073,4.475,18.904,10.569,26.491,18.282c7.588,7.713,13.558,16.668,17.912,26.868C442.059,326.7,444.236,337.52,444.236,348.959
	L444.236,348.959z"/>
</svg>
