<?xml version="1.0" encoding="utf-8"?>
<!-- Generator: Adobe Illustrator 16.0.4, SVG Export Plug-In . SVG Version: 6.00 Build 0)  -->
<!DOCTYPE svg PUBLIC "-//W3C//DTD SVG 1.1//EN" "http://www.w3.org/Graphics/SVG/1.1/DTD/svg11.dtd">
<svg version="1.1"
	 id="Layer_1" sodipodi:version="0.32" sodipodi:docbase="C:\Documents and Settings\ltljltlj\Desktop\Signs\Interstate Shields" inkscape:output_extension="org.inkscape.output.svg.inkscape" sodipodi:modified="true" sodipodi:docname="I-7.svg" inkscape:version="0.45" xmlns:dc="http://purl.org/dc/elements/1.1/" xmlns:cc="http://web.resource.org/cc/" xmlns:rdf="http://www.w3.org/1999/02/22-rdf-syntax-ns#" xmlns:svg="http://www.w3.org/2000/svg" xmlns:sodipodi="http://sodipodi.sourceforge.net/DTD/sodipodi-0.dtd" xmlns:inkscape="http://www.inkscape.org/namespaces/inkscape"
	 xmlns="http://www.w3.org/2000/svg" xmlns:xlink="http://www.w3.org/1999/xlink" x="0px" y="0px" width="601px" height="601px"
	 viewBox="0 0 601 601" enable-background="new 0 0 601 601" xml:space="preserve">
<sodipodi:namedview  width="601px" height="601px" inkscape:current-layer="Layer_1" inkscape:window-y="-4" inkscape:window-x="-4" inkscape:window-width="1280" inkscape:window-height="968" inkscape:pageopacity="0.0" inkscape:pageshadow="2" inkscape:cy="299.49944" inkscape:cx="300.49997" inkscape:zoom="1.2845255" pagecolor="#ffffff" bordercolor="#666666" guidetolerance="10.0" objecttolerance="10.0" gridtolerance="10.0" borderopacity="1.0" id="base">
	</sodipodi:namedview>
<g id="g1600" transform="matrix(0.9983361,0,0,0.9983377,0.4991681,0.4986859)">
	<path id="path1602" fill="#FFFFFF" stroke="#000000" stroke-width="1" d="M80.888,0.001
		c34.734,10.601,71.604,16.304,109.807,16.304c38.202,0,75.072-5.703,109.806-16.303c34.734,10.601,71.604,16.303,109.806,16.303
		s75.073-5.703,109.807-16.304c50.65,64.015,80.888,144.919,80.888,232.887c0,181.726-129.045,333.308-300.5,368.111
		c-171.455-34.803-300.5-186.385-300.5-368.111C0.001,144.92,30.239,64.015,80.888,0.001z"/>
	<path id="path1604" fill="#FFFFFF" stroke="#000000" stroke-width="1" stroke-linecap="round" stroke-linejoin="round" d="
		M80.888,0.001c34.734,10.601,71.604,16.304,109.807,16.304c38.202,0,75.072-5.703,109.806-16.303
		c34.734,10.601,71.604,16.303,109.806,16.303s75.073-5.703,109.807-16.304c50.65,64.015,80.888,144.919,80.888,232.887
		c0,181.726-129.045,333.308-300.5,368.111c-171.455-34.803-300.5-186.385-300.5-368.111C0.001,144.92,30.239,64.015,80.888,0.001z"
		/>
</g>
<g id="g1606" transform="matrix(1.0070935,0,0,1.0102847,-2.1280324,-3.66885)">
	<path id="path1608" fill="#003F87" d="M15.021,232.882c0-32.032,4.176-63.089,12.014-92.655h546.921
		c7.838,29.567,12.014,60.623,12.014,92.655c0,173.393-122.377,318.201-285.475,352.763
		C137.399,551.083,15.021,406.275,15.021,232.882z"/>
</g>
<g id="g1610" transform="matrix(1.0125461,0,0,1.0271486,-3.7638021,-3.1017482)">
	<path id="path1612" fill="#AF1E2D" d="M31.37,125.203c12.275-39.286,31.09-75.685,55.171-107.919
		c33.156,9.148,68.081,14.036,104.147,14.036c38.124,0,74.972-5.461,109.806-15.644C335.327,25.859,372.176,31.32,410.3,31.32
		c36.066,0,70.991-4.888,104.147-14.036c24.08,32.234,42.894,68.633,55.17,107.919H31.37L31.37,125.203z"/>
</g>
<path id="text5085" fill="#FFFFFF" d="M385.571,361.28c-0.001,11.439-2.302,22.259-6.906,32.458s-10.823,19.154-18.657,26.867
	s-16.852,13.807-27.05,18.282c-10.198,4.475-21.019,6.712-32.458,6.712c-11.448,0-22.271-2.237-32.47-6.712
	c-10.199-4.476-19.215-10.569-27.049-18.282s-14.051-16.668-18.651-26.867c-4.601-10.199-6.901-21.019-6.9-32.458
	c0-11.941,2.486-22.7,7.458-32.276s12.062-18.096,21.271-25.559c-12.192-12.935-18.288-28.11-18.288-45.524
	c0-9.702,1.991-18.843,5.973-27.426c3.981-8.582,9.392-16.169,16.232-22.762c6.839-6.593,14.736-11.755,23.69-15.486
	c8.954-3.731,18.532-5.596,28.735-5.597c9.952,0,19.528,1.866,28.729,5.597c9.201,3.731,17.223,8.894,24.066,15.486
	c6.844,6.593,12.316,14.181,16.42,22.762c4.104,8.583,6.154,17.724,6.154,27.426c0,8.707-1.68,16.854-5.038,24.442
	c-3.359,7.587-8.147,14.615-14.364,21.083c9.701,7.463,16.977,16.105,21.828,25.929C383.146,339.197,385.57,349.832,385.571,361.28
	L385.571,361.28z M335.571,256.805c0-8.213-3.42-15.243-10.259-21.088c-6.84-5.845-15.111-8.768-24.812-8.768
	c-9.702,0-17.972,2.923-24.812,8.768s-10.259,12.875-10.259,21.088c0,7.462,3.419,13.868,10.259,19.215
	c6.84,5.349,15.11,8.022,24.812,8.022c9.701,0,17.973-2.674,24.812-8.022C332.151,270.672,335.571,264.267,335.571,256.805
	L335.571,256.805z M346.014,362.02c0-5.223-1.244-10.134-3.729-14.734c-2.486-4.6-5.781-8.58-9.884-11.939
	c-4.104-3.358-8.892-6.032-14.365-8.021c-5.473-1.989-11.318-2.983-17.535-2.983c-6.217,0-12,0.994-17.348,2.983
	c-5.348,1.989-10.076,4.663-14.183,8.021c-4.107,3.359-7.341,7.34-9.701,11.939c-2.361,4.601-3.542,9.512-3.542,14.734
	c0,5.975,1.18,11.573,3.542,16.796c2.36,5.224,5.594,9.823,9.701,13.802c4.107,3.978,8.834,7.086,14.183,9.325
	c5.348,2.239,11.13,3.359,17.348,3.359c6.217,0,12.125-1.12,17.724-3.359s10.449-5.348,14.552-9.325
	c4.104-3.979,7.336-8.578,9.696-13.802C344.832,373.593,346.014,367.994,346.014,362.02L346.014,362.02z"/>
</svg>
